<svg width="1017" height="531" viewBox="0 0 1017 531" fill="none" xmlns="http://www.w3.org/2000/svg">
<rect width="1017" height="531" fill="white"/>
<rect width="1017" height="531" rx="25" fill="#C4C4C4"/>
<path d="M375.438 39.2812H357.438V51.4688H378.562V59H348.062V13.5H378.5V21.0938H357.438V31.9375H375.438V39.2812ZM396.344 35.2812L402.031 25.1875H411.688L402.062 41.75L412.094 59H402.406L396.375 48.375L390.375 59H380.656L390.688 41.75L381.094 25.1875H390.781L396.344 35.2812ZM446.469 42.4062C446.469 47.6146 445.281 51.7917 442.906 54.9375C440.552 58.0625 437.365 59.625 433.344 59.625C429.927 59.625 427.167 58.4375 425.062 56.0625V72H416.031V25.1875H424.406L424.719 28.5C426.906 25.875 429.76 24.5625 433.281 24.5625C437.448 24.5625 440.688 26.1042 443 29.1875C445.312 32.2708 446.469 36.5208 446.469 41.9375V42.4062ZM437.438 41.75C437.438 38.6042 436.875 36.1771 435.75 34.4688C434.646 32.7604 433.031 31.9062 430.906 31.9062C428.073 31.9062 426.125 32.9896 425.062 35.1562V49C426.167 51.2292 428.135 52.3438 430.969 52.3438C435.281 52.3438 437.438 48.8125 437.438 41.75ZM467.656 59.625C462.698 59.625 458.656 58.1042 455.531 55.0625C452.427 52.0208 450.875 47.9688 450.875 42.9062V42.0312C450.875 38.6354 451.531 35.6042 452.844 32.9375C454.156 30.25 456.01 28.1875 458.406 26.75C460.823 25.2917 463.573 24.5625 466.656 24.5625C471.281 24.5625 474.917 26.0208 477.562 28.9375C480.229 31.8542 481.562 35.9896 481.562 41.3438V45.0312H460.031C460.323 47.2396 461.198 49.0104 462.656 50.3438C464.135 51.6771 466 52.3438 468.25 52.3438C471.729 52.3438 474.448 51.0833 476.406 48.5625L480.844 53.5312C479.49 55.4479 477.656 56.9479 475.344 58.0312C473.031 59.0938 470.469 59.625 467.656 59.625ZM466.625 31.875C464.833 31.875 463.375 32.4792 462.25 33.6875C461.146 34.8958 460.438 36.625 460.125 38.875H472.688V38.1562C472.646 36.1562 472.104 34.6146 471.062 33.5312C470.021 32.4271 468.542 31.875 466.625 31.875ZM505.719 33.6562C504.49 33.4896 503.406 33.4062 502.469 33.4062C499.052 33.4062 496.812 34.5625 495.75 36.875V59H486.719V25.1875H495.25L495.5 29.2188C497.312 26.1146 499.823 24.5625 503.031 24.5625C504.031 24.5625 504.969 24.6979 505.844 24.9688L505.719 33.6562ZM519.625 59H510.562V25.1875H519.625V59ZM510.031 16.4375C510.031 15.0833 510.479 13.9688 511.375 13.0938C512.292 12.2188 513.531 11.7812 515.094 11.7812C516.635 11.7812 517.865 12.2188 518.781 13.0938C519.698 13.9688 520.156 15.0833 520.156 16.4375C520.156 17.8125 519.688 18.9375 518.75 19.8125C517.833 20.6875 516.615 21.125 515.094 21.125C513.573 21.125 512.344 20.6875 511.406 19.8125C510.49 18.9375 510.031 17.8125 510.031 16.4375ZM535.562 25.1875L535.844 28.9688C538.24 26.0312 541.479 24.5625 545.562 24.5625C549.917 24.5625 552.906 26.2812 554.531 29.7188C556.906 26.2812 560.292 24.5625 564.688 24.5625C568.354 24.5625 571.083 25.6354 572.875 27.7812C574.667 29.9062 575.562 33.1146 575.562 37.4062V59H566.5V37.4375C566.5 35.5208 566.125 34.125 565.375 33.25C564.625 32.3542 563.302 31.9062 561.406 31.9062C558.698 31.9062 556.823 33.1979 555.781 35.7812L555.812 59H546.781V37.4688C546.781 35.5104 546.396 34.0938 545.625 33.2188C544.854 32.3438 543.542 31.9062 541.688 31.9062C539.125 31.9062 537.271 32.9688 536.125 35.0938V59H527.094V25.1875H535.562ZM598.094 59.625C593.135 59.625 589.094 58.1042 585.969 55.0625C582.865 52.0208 581.312 47.9688 581.312 42.9062V42.0312C581.312 38.6354 581.969 35.6042 583.281 32.9375C584.594 30.25 586.448 28.1875 588.844 26.75C591.26 25.2917 594.01 24.5625 597.094 24.5625C601.719 24.5625 605.354 26.0208 608 28.9375C610.667 31.8542 612 35.9896 612 41.3438V45.0312H590.469C590.76 47.2396 591.635 49.0104 593.094 50.3438C594.573 51.6771 596.438 52.3438 598.688 52.3438C602.167 52.3438 604.885 51.0833 606.844 48.5625L611.281 53.5312C609.927 55.4479 608.094 56.9479 605.781 58.0312C603.469 59.0938 600.906 59.625 598.094 59.625ZM597.062 31.875C595.271 31.875 593.812 32.4792 592.688 33.6875C591.583 34.8958 590.875 36.625 590.562 38.875H603.125V38.1562C603.083 36.1562 602.542 34.6146 601.5 33.5312C600.458 32.4271 598.979 31.875 597.062 31.875ZM625.469 25.1875L625.75 29.0938C628.167 26.0729 631.406 24.5625 635.469 24.5625C639.052 24.5625 641.719 25.6146 643.469 27.7188C645.219 29.8229 646.115 32.9688 646.156 37.1562V59H637.125V37.375C637.125 35.4583 636.708 34.0729 635.875 33.2188C635.042 32.3438 633.656 31.9062 631.719 31.9062C629.177 31.9062 627.271 32.9896 626 35.1562V59H616.969V25.1875H625.469ZM663.844 16.875V25.1875H669.625V31.8125H663.844V48.6875C663.844 49.9375 664.083 50.8333 664.562 51.375C665.042 51.9167 665.958 52.1875 667.312 52.1875C668.312 52.1875 669.198 52.1146 669.969 51.9688V58.8125C668.198 59.3542 666.375 59.625 664.5 59.625C658.167 59.625 654.938 56.4271 654.812 50.0312V31.8125H649.875V25.1875H654.812V16.875H663.844Z" fill="black"/>
<path d="M949.938 325.562C949.938 324.125 950.417 322.958 951.375 322.062C952.354 321.167 953.573 320.719 955.031 320.719C956.51 320.719 957.729 321.167 958.688 322.062C959.667 322.958 960.156 324.125 960.156 325.562C960.156 326.979 959.677 328.135 958.719 329.031C957.76 329.906 956.531 330.344 955.031 330.344C953.552 330.344 952.333 329.906 951.375 329.031C950.417 328.135 949.938 326.979 949.938 325.562ZM968.562 325.562C968.562 324.125 969.042 322.958 970 322.062C970.979 321.167 972.198 320.719 973.656 320.719C975.135 320.719 976.354 321.167 977.312 322.062C978.292 322.958 978.781 324.125 978.781 325.562C978.781 326.979 978.302 328.135 977.344 329.031C976.385 329.906 975.156 330.344 973.656 330.344C972.177 330.344 970.958 329.906 970 329.031C969.042 328.135 968.562 326.979 968.562 325.562ZM987.188 325.562C987.188 324.125 987.667 322.958 988.625 322.062C989.604 321.167 990.823 320.719 992.281 320.719C993.76 320.719 994.979 321.167 995.938 322.062C996.917 322.958 997.406 324.125 997.406 325.562C997.406 326.979 996.927 328.135 995.969 329.031C995.01 329.906 993.781 330.344 992.281 330.344C990.802 330.344 989.583 329.906 988.625 329.031C987.667 328.135 987.188 326.979 987.188 325.562Z" fill="black"/>
<rect x="16" y="126" width="431" height="389" rx="25" fill="#DBDADA"/>
<path d="M188.734 141.57H178.281V170H171.25V141.57H160.938V135.875H188.734V141.57ZM203.078 170C202.766 169.391 202.539 168.633 202.398 167.727C200.758 169.555 198.625 170.469 196 170.469C193.516 170.469 191.453 169.75 189.812 168.312C188.188 166.875 187.375 165.062 187.375 162.875C187.375 160.188 188.367 158.125 190.352 156.688C192.352 155.25 195.234 154.523 199 154.508H202.117V153.055C202.117 151.883 201.812 150.945 201.203 150.242C200.609 149.539 199.664 149.188 198.367 149.188C197.227 149.188 196.328 149.461 195.672 150.008C195.031 150.555 194.711 151.305 194.711 152.258H187.938C187.938 150.789 188.391 149.43 189.297 148.18C190.203 146.93 191.484 145.953 193.141 145.25C194.797 144.531 196.656 144.172 198.719 144.172C201.844 144.172 204.32 144.961 206.148 146.539C207.992 148.102 208.914 150.305 208.914 153.148V164.141C208.93 166.547 209.266 168.367 209.922 169.602V170H203.078ZM197.477 165.289C198.477 165.289 199.398 165.07 200.242 164.633C201.086 164.18 201.711 163.578 202.117 162.828V158.469H199.586C196.195 158.469 194.391 159.641 194.172 161.984L194.148 162.383C194.148 163.227 194.445 163.922 195.039 164.469C195.633 165.016 196.445 165.289 197.477 165.289ZM227.852 162.992C227.852 162.164 227.438 161.516 226.609 161.047C225.797 160.562 224.484 160.133 222.672 159.758C216.641 158.492 213.625 155.93 213.625 152.07C213.625 149.82 214.555 147.945 216.414 146.445C218.289 144.93 220.734 144.172 223.75 144.172C226.969 144.172 229.539 144.93 231.461 146.445C233.398 147.961 234.367 149.93 234.367 152.352H227.594C227.594 151.383 227.281 150.586 226.656 149.961C226.031 149.32 225.055 149 223.727 149C222.586 149 221.703 149.258 221.078 149.773C220.453 150.289 220.141 150.945 220.141 151.742C220.141 152.492 220.492 153.102 221.195 153.57C221.914 154.023 223.117 154.422 224.805 154.766C226.492 155.094 227.914 155.469 229.07 155.891C232.648 157.203 234.438 159.477 234.438 162.711C234.438 165.023 233.445 166.898 231.461 168.336C229.477 169.758 226.914 170.469 223.773 170.469C221.648 170.469 219.758 170.094 218.102 169.344C216.461 168.578 215.172 167.539 214.234 166.227C213.297 164.898 212.828 163.469 212.828 161.938H219.25C219.312 163.141 219.758 164.062 220.586 164.703C221.414 165.344 222.523 165.664 223.914 165.664C225.211 165.664 226.188 165.422 226.844 164.938C227.516 164.438 227.852 163.789 227.852 162.992ZM248.031 159.828L245.594 162.266V170H238.82V134H245.594V153.945L246.906 152.258L253.398 144.641H261.531L252.367 155.211L262.328 170H254.547L248.031 159.828ZM292.586 170H285.812V143.891L277.727 146.398V140.891L291.859 135.828H292.586V170Z" fill="black"/>
<path d="M83.2891 246.891C83.2891 251.609 82.3125 255.219 80.3594 257.719C78.4062 260.219 75.5469 261.469 71.7812 261.469C68.0625 261.469 65.2188 260.242 63.25 257.789C61.2812 255.336 60.2734 251.82 60.2266 247.242V240.961C60.2266 236.195 61.2109 232.578 63.1797 230.109C65.1641 227.641 68.0156 226.406 71.7344 226.406C75.4531 226.406 78.2969 227.633 80.2656 230.086C82.2344 232.523 83.2422 236.031 83.2891 240.609V246.891ZM76.5156 240C76.5156 237.172 76.125 235.117 75.3438 233.836C74.5781 232.539 73.375 231.891 71.7344 231.891C70.1406 231.891 68.9609 232.508 68.1953 233.742C67.4453 234.961 67.0469 236.875 67 239.484V247.781C67 250.562 67.375 252.633 68.125 253.992C68.8906 255.336 70.1094 256.008 71.7812 256.008C73.4375 256.008 74.6328 255.359 75.3672 254.062C76.1016 252.766 76.4844 250.781 76.5156 248.109V240ZM88.4922 257.672C88.4922 256.594 88.8516 255.719 89.5703 255.047C90.3047 254.375 91.2188 254.039 92.3125 254.039C93.4219 254.039 94.3359 254.375 95.0547 255.047C95.7891 255.719 96.1562 256.594 96.1562 257.672C96.1562 258.734 95.7969 259.602 95.0781 260.273C94.3594 260.93 93.4375 261.258 92.3125 261.258C91.2031 261.258 90.2891 260.93 89.5703 260.273C88.8516 259.602 88.4922 258.734 88.4922 257.672ZM88.4922 238.477C88.4922 237.398 88.8516 236.523 89.5703 235.852C90.3047 235.18 91.2188 234.844 92.3125 234.844C93.4219 234.844 94.3359 235.18 95.0547 235.852C95.7891 236.523 96.1562 237.398 96.1562 238.477C96.1562 239.539 95.7969 240.406 95.0781 241.078C94.3594 241.734 93.4375 242.062 92.3125 242.062C91.2031 242.062 90.2891 241.734 89.5703 241.078C88.8516 240.406 88.4922 239.539 88.4922 238.477ZM157.281 253.969H144.953L142.609 261H135.133L147.836 226.875H154.352L167.125 261H159.648L157.281 253.969ZM146.852 248.273H155.383L151.094 235.5L146.852 248.273ZM194.219 261V226.875H206.172C210.312 226.875 213.453 227.672 215.594 229.266C217.734 230.844 218.805 233.164 218.805 236.227C218.805 237.898 218.375 239.375 217.516 240.656C216.656 241.922 215.461 242.852 213.93 243.445C215.68 243.883 217.055 244.766 218.055 246.094C219.07 247.422 219.578 249.047 219.578 250.969C219.578 254.25 218.531 256.734 216.438 258.422C214.344 260.109 211.359 260.969 207.484 261H194.219ZM201.25 246.141V255.352H207.273C208.93 255.352 210.219 254.961 211.141 254.18C212.078 253.383 212.547 252.289 212.547 250.898C212.547 247.773 210.93 246.188 207.695 246.141H201.25ZM201.25 241.172H206.453C210 241.109 211.773 239.695 211.773 236.93C211.773 235.383 211.32 234.273 210.414 233.602C209.523 232.914 208.109 232.57 206.172 232.57H201.25V241.172ZM269.312 246.211H255.812V255.352H271.656V261H248.781V226.875H271.609V232.57H255.812V240.703H269.312V246.211ZM326.477 249.633C326.211 253.305 324.852 256.195 322.398 258.305C319.961 260.414 316.742 261.469 312.742 261.469C308.367 261.469 304.922 260 302.406 257.062C299.906 254.109 298.656 250.062 298.656 244.922V242.836C298.656 239.555 299.234 236.664 300.391 234.164C301.547 231.664 303.195 229.75 305.336 228.422C307.492 227.078 309.992 226.406 312.836 226.406C316.773 226.406 319.945 227.461 322.352 229.57C324.758 231.68 326.148 234.641 326.523 238.453H319.492C319.32 236.25 318.703 234.656 317.641 233.672C316.594 232.672 314.992 232.172 312.836 232.172C310.492 232.172 308.734 233.016 307.562 234.703C306.406 236.375 305.812 238.977 305.781 242.508V245.086C305.781 248.773 306.336 251.469 307.445 253.172C308.57 254.875 310.336 255.727 312.742 255.727C314.914 255.727 316.531 255.234 317.594 254.25C318.672 253.25 319.289 251.711 319.445 249.633H326.477ZM355 261V226.875H365.5C368.5 226.875 371.18 227.555 373.539 228.914C375.914 230.258 377.766 232.18 379.094 234.68C380.422 237.164 381.086 239.992 381.086 243.164V244.734C381.086 247.906 380.43 250.727 379.117 253.195C377.82 255.664 375.984 257.578 373.609 258.938C371.234 260.297 368.555 260.984 365.57 261H355ZM362.031 232.57V255.352H365.43C368.18 255.352 370.281 254.453 371.734 252.656C373.188 250.859 373.93 248.289 373.961 244.945V243.141C373.961 239.672 373.242 237.047 371.805 235.266C370.367 233.469 368.266 232.57 365.5 232.57H362.031Z" fill="black"/>
<path d="M76.7734 334H70V307.891L61.9141 310.398V304.891L76.0469 299.828H76.7734V334ZM88.4922 330.672C88.4922 329.594 88.8516 328.719 89.5703 328.047C90.3047 327.375 91.2188 327.039 92.3125 327.039C93.4219 327.039 94.3359 327.375 95.0547 328.047C95.7891 328.719 96.1562 329.594 96.1562 330.672C96.1562 331.734 95.7969 332.602 95.0781 333.273C94.3594 333.93 93.4375 334.258 92.3125 334.258C91.2031 334.258 90.2891 333.93 89.5703 333.273C88.8516 332.602 88.4922 331.734 88.4922 330.672ZM88.4922 311.477C88.4922 310.398 88.8516 309.523 89.5703 308.852C90.3047 308.18 91.2188 307.844 92.3125 307.844C93.4219 307.844 94.3359 308.18 95.0547 308.852C95.7891 309.523 96.1562 310.398 96.1562 311.477C96.1562 312.539 95.7969 313.406 95.0781 314.078C94.3594 314.734 93.4375 315.062 92.3125 315.062C91.2031 315.062 90.2891 314.734 89.5703 314.078C88.8516 313.406 88.4922 312.539 88.4922 311.477ZM138.016 334V299.875H149.969C154.109 299.875 157.25 300.672 159.391 302.266C161.531 303.844 162.602 306.164 162.602 309.227C162.602 310.898 162.172 312.375 161.312 313.656C160.453 314.922 159.258 315.852 157.727 316.445C159.477 316.883 160.852 317.766 161.852 319.094C162.867 320.422 163.375 322.047 163.375 323.969C163.375 327.25 162.328 329.734 160.234 331.422C158.141 333.109 155.156 333.969 151.281 334H138.016ZM145.047 319.141V328.352H151.07C152.727 328.352 154.016 327.961 154.938 327.18C155.875 326.383 156.344 325.289 156.344 323.898C156.344 320.773 154.727 319.188 151.492 319.141H145.047ZM145.047 314.172H150.25C153.797 314.109 155.57 312.695 155.57 309.93C155.57 308.383 155.117 307.273 154.211 306.602C153.32 305.914 151.906 305.57 149.969 305.57H145.047V314.172ZM219.367 322.633C219.102 326.305 217.742 329.195 215.289 331.305C212.852 333.414 209.633 334.469 205.633 334.469C201.258 334.469 197.812 333 195.297 330.062C192.797 327.109 191.547 323.062 191.547 317.922V315.836C191.547 312.555 192.125 309.664 193.281 307.164C194.438 304.664 196.086 302.75 198.227 301.422C200.383 300.078 202.883 299.406 205.727 299.406C209.664 299.406 212.836 300.461 215.242 302.57C217.648 304.68 219.039 307.641 219.414 311.453H212.383C212.211 309.25 211.594 307.656 210.531 306.672C209.484 305.672 207.883 305.172 205.727 305.172C203.383 305.172 201.625 306.016 200.453 307.703C199.297 309.375 198.703 311.977 198.672 315.508V318.086C198.672 321.773 199.227 324.469 200.336 326.172C201.461 327.875 203.227 328.727 205.633 328.727C207.805 328.727 209.422 328.234 210.484 327.25C211.562 326.25 212.18 324.711 212.336 322.633H219.367ZM267.156 326.969H254.828L252.484 334H245.008L257.711 299.875H264.227L277 334H269.523L267.156 326.969ZM256.727 321.273H265.258L260.969 308.5L256.727 321.273ZM304.094 334V299.875H314.594C317.594 299.875 320.273 300.555 322.633 301.914C325.008 303.258 326.859 305.18 328.188 307.68C329.516 310.164 330.18 312.992 330.18 316.164V317.734C330.18 320.906 329.523 323.727 328.211 326.195C326.914 328.664 325.078 330.578 322.703 331.938C320.328 333.297 317.648 333.984 314.664 334H304.094ZM311.125 305.57V328.352H314.523C317.273 328.352 319.375 327.453 320.828 325.656C322.281 323.859 323.023 321.289 323.055 317.945V316.141C323.055 312.672 322.336 310.047 320.898 308.266C319.461 306.469 317.359 305.57 314.594 305.57H311.125ZM379.75 319.211H366.25V328.352H382.094V334H359.219V299.875H382.047V305.57H366.25V313.703H379.75V319.211Z" fill="black"/>
<path d="M83.7109 407H60.3203V402.359L71.3594 390.594C72.875 388.938 73.9922 387.492 74.7109 386.258C75.4453 385.023 75.8125 383.852 75.8125 382.742C75.8125 381.227 75.4297 380.039 74.6641 379.18C73.8984 378.305 72.8047 377.867 71.3828 377.867C69.8516 377.867 68.6406 378.398 67.75 379.461C66.875 380.508 66.4375 381.891 66.4375 383.609H59.6406C59.6406 381.531 60.1328 379.633 61.1172 377.914C62.1172 376.195 63.5234 374.852 65.3359 373.883C67.1484 372.898 69.2031 372.406 71.5 372.406C75.0156 372.406 77.7422 373.25 79.6797 374.938C81.6328 376.625 82.6094 379.008 82.6094 382.086C82.6094 383.773 82.1719 385.492 81.2969 387.242C80.4219 388.992 78.9219 391.031 76.7969 393.359L69.0391 401.539H83.7109V407ZM88.4922 403.672C88.4922 402.594 88.8516 401.719 89.5703 401.047C90.3047 400.375 91.2188 400.039 92.3125 400.039C93.4219 400.039 94.3359 400.375 95.0547 401.047C95.7891 401.719 96.1562 402.594 96.1562 403.672C96.1562 404.734 95.7969 405.602 95.0781 406.273C94.3594 406.93 93.4375 407.258 92.3125 407.258C91.2031 407.258 90.2891 406.93 89.5703 406.273C88.8516 405.602 88.4922 404.734 88.4922 403.672ZM88.4922 384.477C88.4922 383.398 88.8516 382.523 89.5703 381.852C90.3047 381.18 91.2188 380.844 92.3125 380.844C93.4219 380.844 94.3359 381.18 95.0547 381.852C95.7891 382.523 96.1562 383.398 96.1562 384.477C96.1562 385.539 95.7969 386.406 95.0781 387.078C94.3594 387.734 93.4375 388.062 92.3125 388.062C91.2031 388.062 90.2891 387.734 89.5703 387.078C88.8516 386.406 88.4922 385.539 88.4922 384.477ZM164.805 395.633C164.539 399.305 163.18 402.195 160.727 404.305C158.289 406.414 155.07 407.469 151.07 407.469C146.695 407.469 143.25 406 140.734 403.062C138.234 400.109 136.984 396.062 136.984 390.922V388.836C136.984 385.555 137.562 382.664 138.719 380.164C139.875 377.664 141.523 375.75 143.664 374.422C145.82 373.078 148.32 372.406 151.164 372.406C155.102 372.406 158.273 373.461 160.68 375.57C163.086 377.68 164.477 380.641 164.852 384.453H157.82C157.648 382.25 157.031 380.656 155.969 379.672C154.922 378.672 153.32 378.172 151.164 378.172C148.82 378.172 147.062 379.016 145.891 380.703C144.734 382.375 144.141 384.977 144.109 388.508V391.086C144.109 394.773 144.664 397.469 145.773 399.172C146.898 400.875 148.664 401.727 151.07 401.727C153.242 401.727 154.859 401.234 155.922 400.25C157 399.25 157.617 397.711 157.773 395.633H164.805ZM193.328 407V372.875H203.828C206.828 372.875 209.508 373.555 211.867 374.914C214.242 376.258 216.094 378.18 217.422 380.68C218.75 383.164 219.414 385.992 219.414 389.164V390.734C219.414 393.906 218.758 396.727 217.445 399.195C216.148 401.664 214.312 403.578 211.938 404.938C209.562 406.297 206.883 406.984 203.898 407H193.328ZM200.359 378.57V401.352H203.758C206.508 401.352 208.609 400.453 210.062 398.656C211.516 396.859 212.258 394.289 212.289 390.945V389.141C212.289 385.672 211.57 383.047 210.133 381.266C208.695 379.469 206.594 378.57 203.828 378.57H200.359ZM248.453 407V372.875H260.406C264.547 372.875 267.688 373.672 269.828 375.266C271.969 376.844 273.039 379.164 273.039 382.227C273.039 383.898 272.609 385.375 271.75 386.656C270.891 387.922 269.695 388.852 268.164 389.445C269.914 389.883 271.289 390.766 272.289 392.094C273.305 393.422 273.812 395.047 273.812 396.969C273.812 400.25 272.766 402.734 270.672 404.422C268.578 406.109 265.594 406.969 261.719 407H248.453ZM255.484 392.141V401.352H261.508C263.164 401.352 264.453 400.961 265.375 400.18C266.312 399.383 266.781 398.289 266.781 396.898C266.781 393.773 265.164 392.188 261.93 392.141H255.484ZM255.484 387.172H260.688C264.234 387.109 266.008 385.695 266.008 382.93C266.008 381.383 265.555 380.273 264.648 379.602C263.758 378.914 262.344 378.57 260.406 378.57H255.484V387.172ZM323.547 392.211H310.047V401.352H325.891V407H303.016V372.875H325.844V378.57H310.047V386.703H323.547V392.211ZM373.188 399.969H360.859L358.516 407H351.039L363.742 372.875H370.258L383.031 407H375.555L373.188 399.969ZM362.758 394.273H371.289L367 381.5L362.758 394.273Z" fill="black"/>
<path d="M67.2109 459.938H70.8203C72.5391 459.938 73.8125 459.508 74.6406 458.648C75.4688 457.789 75.8828 456.648 75.8828 455.227C75.8828 453.852 75.4688 452.781 74.6406 452.016C73.8281 451.25 72.7031 450.867 71.2656 450.867C69.9688 450.867 68.8828 451.227 68.0078 451.945C67.1328 452.648 66.6953 453.57 66.6953 454.711H59.9219C59.9219 452.93 60.3984 451.336 61.3516 449.93C62.3203 448.508 63.6641 447.398 65.3828 446.602C67.1172 445.805 69.0234 445.406 71.1016 445.406C74.7109 445.406 77.5391 446.273 79.5859 448.008C81.6328 449.727 82.6562 452.102 82.6562 455.133C82.6562 456.695 82.1797 458.133 81.2266 459.445C80.2734 460.758 79.0234 461.766 77.4766 462.469C79.3984 463.156 80.8281 464.188 81.7656 465.562C82.7188 466.938 83.1953 468.562 83.1953 470.438C83.1953 473.469 82.0859 475.898 79.8672 477.727C77.6641 479.555 74.7422 480.469 71.1016 480.469C67.6953 480.469 64.9062 479.57 62.7344 477.773C60.5781 475.977 59.5 473.602 59.5 470.648H66.2734C66.2734 471.93 66.75 472.977 67.7031 473.789C68.6719 474.602 69.8594 475.008 71.2656 475.008C72.875 475.008 74.1328 474.586 75.0391 473.742C75.9609 472.883 76.4219 471.75 76.4219 470.344C76.4219 466.938 74.5469 465.234 70.7969 465.234H67.2109V459.938ZM88.4922 476.672C88.4922 475.594 88.8516 474.719 89.5703 474.047C90.3047 473.375 91.2188 473.039 92.3125 473.039C93.4219 473.039 94.3359 473.375 95.0547 474.047C95.7891 474.719 96.1562 475.594 96.1562 476.672C96.1562 477.734 95.7969 478.602 95.0781 479.273C94.3594 479.93 93.4375 480.258 92.3125 480.258C91.2031 480.258 90.2891 479.93 89.5703 479.273C88.8516 478.602 88.4922 477.734 88.4922 476.672ZM88.4922 457.477C88.4922 456.398 88.8516 455.523 89.5703 454.852C90.3047 454.18 91.2188 453.844 92.3125 453.844C93.4219 453.844 94.3359 454.18 95.0547 454.852C95.7891 455.523 96.1562 456.398 96.1562 457.477C96.1562 458.539 95.7969 459.406 95.0781 460.078C94.3594 460.734 93.4375 461.062 92.3125 461.062C91.2031 461.062 90.2891 460.734 89.5703 460.078C88.8516 459.406 88.4922 458.539 88.4922 457.477ZM137.922 476.672C137.922 475.594 138.281 474.719 139 474.047C139.734 473.375 140.648 473.039 141.742 473.039C142.852 473.039 143.766 473.375 144.484 474.047C145.219 474.719 145.586 475.594 145.586 476.672C145.586 477.734 145.227 478.602 144.508 479.273C143.789 479.93 142.867 480.258 141.742 480.258C140.633 480.258 139.719 479.93 139 479.273C138.281 478.602 137.922 477.734 137.922 476.672ZM151.891 476.672C151.891 475.594 152.25 474.719 152.969 474.047C153.703 473.375 154.617 473.039 155.711 473.039C156.82 473.039 157.734 473.375 158.453 474.047C159.188 474.719 159.555 475.594 159.555 476.672C159.555 477.734 159.195 478.602 158.477 479.273C157.758 479.93 156.836 480.258 155.711 480.258C154.602 480.258 153.688 479.93 152.969 479.273C152.25 478.602 151.891 477.734 151.891 476.672ZM165.859 476.672C165.859 475.594 166.219 474.719 166.938 474.047C167.672 473.375 168.586 473.039 169.68 473.039C170.789 473.039 171.703 473.375 172.422 474.047C173.156 474.719 173.523 475.594 173.523 476.672C173.523 477.734 173.164 478.602 172.445 479.273C171.727 479.93 170.805 480.258 169.68 480.258C168.57 480.258 167.656 479.93 166.938 479.273C166.219 478.602 165.859 477.734 165.859 476.672Z" fill="black"/>
<rect x="481" y="126" width="431" height="389" rx="25" fill="#DBDADA"/>
<path d="M653.734 141.57H643.281V170H636.25V141.57H625.938V135.875H653.734V141.57ZM668.078 170C667.766 169.391 667.539 168.633 667.398 167.727C665.758 169.555 663.625 170.469 661 170.469C658.516 170.469 656.453 169.75 654.812 168.312C653.188 166.875 652.375 165.062 652.375 162.875C652.375 160.188 653.367 158.125 655.352 156.688C657.352 155.25 660.234 154.523 664 154.508H667.117V153.055C667.117 151.883 666.812 150.945 666.203 150.242C665.609 149.539 664.664 149.188 663.367 149.188C662.227 149.188 661.328 149.461 660.672 150.008C660.031 150.555 659.711 151.305 659.711 152.258H652.938C652.938 150.789 653.391 149.43 654.297 148.18C655.203 146.93 656.484 145.953 658.141 145.25C659.797 144.531 661.656 144.172 663.719 144.172C666.844 144.172 669.32 144.961 671.148 146.539C672.992 148.102 673.914 150.305 673.914 153.148V164.141C673.93 166.547 674.266 168.367 674.922 169.602V170H668.078ZM662.477 165.289C663.477 165.289 664.398 165.07 665.242 164.633C666.086 164.18 666.711 163.578 667.117 162.828V158.469H664.586C661.195 158.469 659.391 159.641 659.172 161.984L659.148 162.383C659.148 163.227 659.445 163.922 660.039 164.469C660.633 165.016 661.445 165.289 662.477 165.289ZM692.852 162.992C692.852 162.164 692.438 161.516 691.609 161.047C690.797 160.562 689.484 160.133 687.672 159.758C681.641 158.492 678.625 155.93 678.625 152.07C678.625 149.82 679.555 147.945 681.414 146.445C683.289 144.93 685.734 144.172 688.75 144.172C691.969 144.172 694.539 144.93 696.461 146.445C698.398 147.961 699.367 149.93 699.367 152.352H692.594C692.594 151.383 692.281 150.586 691.656 149.961C691.031 149.32 690.055 149 688.727 149C687.586 149 686.703 149.258 686.078 149.773C685.453 150.289 685.141 150.945 685.141 151.742C685.141 152.492 685.492 153.102 686.195 153.57C686.914 154.023 688.117 154.422 689.805 154.766C691.492 155.094 692.914 155.469 694.07 155.891C697.648 157.203 699.438 159.477 699.438 162.711C699.438 165.023 698.445 166.898 696.461 168.336C694.477 169.758 691.914 170.469 688.773 170.469C686.648 170.469 684.758 170.094 683.102 169.344C681.461 168.578 680.172 167.539 679.234 166.227C678.297 164.898 677.828 163.469 677.828 161.938H684.25C684.312 163.141 684.758 164.062 685.586 164.703C686.414 165.344 687.523 165.664 688.914 165.664C690.211 165.664 691.188 165.422 691.844 164.938C692.516 164.438 692.852 163.789 692.852 162.992ZM713.031 159.828L710.594 162.266V170H703.82V134H710.594V153.945L711.906 152.258L718.398 144.641H726.531L717.367 155.211L727.328 170H719.547L713.031 159.828ZM764.523 170H741.133V165.359L752.172 153.594C753.688 151.938 754.805 150.492 755.523 149.258C756.258 148.023 756.625 146.852 756.625 145.742C756.625 144.227 756.242 143.039 755.477 142.18C754.711 141.305 753.617 140.867 752.195 140.867C750.664 140.867 749.453 141.398 748.562 142.461C747.688 143.508 747.25 144.891 747.25 146.609H740.453C740.453 144.531 740.945 142.633 741.93 140.914C742.93 139.195 744.336 137.852 746.148 136.883C747.961 135.898 750.016 135.406 752.312 135.406C755.828 135.406 758.555 136.25 760.492 137.938C762.445 139.625 763.422 142.008 763.422 145.086C763.422 146.773 762.984 148.492 762.109 150.242C761.234 151.992 759.734 154.031 757.609 156.359L749.852 164.539H764.523V170Z" fill="black"/>
<path d="M548.289 246.891C548.289 251.609 547.312 255.219 545.359 257.719C543.406 260.219 540.547 261.469 536.781 261.469C533.062 261.469 530.219 260.242 528.25 257.789C526.281 255.336 525.273 251.82 525.227 247.242V240.961C525.227 236.195 526.211 232.578 528.18 230.109C530.164 227.641 533.016 226.406 536.734 226.406C540.453 226.406 543.297 227.633 545.266 230.086C547.234 232.523 548.242 236.031 548.289 240.609V246.891ZM541.516 240C541.516 237.172 541.125 235.117 540.344 233.836C539.578 232.539 538.375 231.891 536.734 231.891C535.141 231.891 533.961 232.508 533.195 233.742C532.445 234.961 532.047 236.875 532 239.484V247.781C532 250.562 532.375 252.633 533.125 253.992C533.891 255.336 535.109 256.008 536.781 256.008C538.438 256.008 539.633 255.359 540.367 254.062C541.102 252.766 541.484 250.781 541.516 248.109V240ZM553.492 257.672C553.492 256.594 553.852 255.719 554.57 255.047C555.305 254.375 556.219 254.039 557.312 254.039C558.422 254.039 559.336 254.375 560.055 255.047C560.789 255.719 561.156 256.594 561.156 257.672C561.156 258.734 560.797 259.602 560.078 260.273C559.359 260.93 558.438 261.258 557.312 261.258C556.203 261.258 555.289 260.93 554.57 260.273C553.852 259.602 553.492 258.734 553.492 257.672ZM553.492 238.477C553.492 237.398 553.852 236.523 554.57 235.852C555.305 235.18 556.219 234.844 557.312 234.844C558.422 234.844 559.336 235.18 560.055 235.852C560.789 236.523 561.156 237.398 561.156 238.477C561.156 239.539 560.797 240.406 560.078 241.078C559.359 241.734 558.438 242.062 557.312 242.062C556.203 242.062 555.289 241.734 554.57 241.078C553.852 240.406 553.492 239.539 553.492 238.477ZM603.016 261V226.875H614.969C619.109 226.875 622.25 227.672 624.391 229.266C626.531 230.844 627.602 233.164 627.602 236.227C627.602 237.898 627.172 239.375 626.312 240.656C625.453 241.922 624.258 242.852 622.727 243.445C624.477 243.883 625.852 244.766 626.852 246.094C627.867 247.422 628.375 249.047 628.375 250.969C628.375 254.25 627.328 256.734 625.234 258.422C623.141 260.109 620.156 260.969 616.281 261H603.016ZM610.047 246.141V255.352H616.07C617.727 255.352 619.016 254.961 619.938 254.18C620.875 253.383 621.344 252.289 621.344 250.898C621.344 247.773 619.727 246.188 616.492 246.141H610.047ZM610.047 241.172H615.25C618.797 241.109 620.57 239.695 620.57 236.93C620.57 235.383 620.117 234.273 619.211 233.602C618.32 232.914 616.906 232.57 614.969 232.57H610.047V241.172ZM684.367 249.633C684.102 253.305 682.742 256.195 680.289 258.305C677.852 260.414 674.633 261.469 670.633 261.469C666.258 261.469 662.812 260 660.297 257.062C657.797 254.109 656.547 250.062 656.547 244.922V242.836C656.547 239.555 657.125 236.664 658.281 234.164C659.438 231.664 661.086 229.75 663.227 228.422C665.383 227.078 667.883 226.406 670.727 226.406C674.664 226.406 677.836 227.461 680.242 229.57C682.648 231.68 684.039 234.641 684.414 238.453H677.383C677.211 236.25 676.594 234.656 675.531 233.672C674.484 232.672 672.883 232.172 670.727 232.172C668.383 232.172 666.625 233.016 665.453 234.703C664.297 236.375 663.703 238.977 663.672 242.508V245.086C663.672 248.773 664.227 251.469 665.336 253.172C666.461 254.875 668.227 255.727 670.633 255.727C672.805 255.727 674.422 255.234 675.484 254.25C676.562 253.25 677.18 251.711 677.336 249.633H684.367ZM732.156 253.969H719.828L717.484 261H710.008L722.711 226.875H729.227L742 261H734.523L732.156 253.969ZM721.727 248.273H730.258L725.969 235.5L721.727 248.273ZM769.094 261V226.875H779.594C782.594 226.875 785.273 227.555 787.633 228.914C790.008 230.258 791.859 232.18 793.188 234.68C794.516 237.164 795.18 239.992 795.18 243.164V244.734C795.18 247.906 794.523 250.727 793.211 253.195C791.914 255.664 790.078 257.578 787.703 258.938C785.328 260.297 782.648 260.984 779.664 261H769.094ZM776.125 232.57V255.352H779.523C782.273 255.352 784.375 254.453 785.828 252.656C787.281 250.859 788.023 248.289 788.055 244.945V243.141C788.055 239.672 787.336 237.047 785.898 235.266C784.461 233.469 782.359 232.57 779.594 232.57H776.125ZM844.75 246.211H831.25V255.352H847.094V261H824.219V226.875H847.047V232.57H831.25V240.703H844.75V246.211Z" fill="black"/>
<path d="M541.773 334H535V307.891L526.914 310.398V304.891L541.047 299.828H541.773V334ZM553.492 330.672C553.492 329.594 553.852 328.719 554.57 328.047C555.305 327.375 556.219 327.039 557.312 327.039C558.422 327.039 559.336 327.375 560.055 328.047C560.789 328.719 561.156 329.594 561.156 330.672C561.156 331.734 560.797 332.602 560.078 333.273C559.359 333.93 558.438 334.258 557.312 334.258C556.203 334.258 555.289 333.93 554.57 333.273C553.852 332.602 553.492 331.734 553.492 330.672ZM553.492 311.477C553.492 310.398 553.852 309.523 554.57 308.852C555.305 308.18 556.219 307.844 557.312 307.844C558.422 307.844 559.336 308.18 560.055 308.852C560.789 309.523 561.156 310.398 561.156 311.477C561.156 312.539 560.797 313.406 560.078 314.078C559.359 314.734 558.438 315.062 557.312 315.062C556.203 315.062 555.289 314.734 554.57 314.078C553.852 313.406 553.492 312.539 553.492 311.477ZM602.922 330.672C602.922 329.594 603.281 328.719 604 328.047C604.734 327.375 605.648 327.039 606.742 327.039C607.852 327.039 608.766 327.375 609.484 328.047C610.219 328.719 610.586 329.594 610.586 330.672C610.586 331.734 610.227 332.602 609.508 333.273C608.789 333.93 607.867 334.258 606.742 334.258C605.633 334.258 604.719 333.93 604 333.273C603.281 332.602 602.922 331.734 602.922 330.672ZM616.891 330.672C616.891 329.594 617.25 328.719 617.969 328.047C618.703 327.375 619.617 327.039 620.711 327.039C621.82 327.039 622.734 327.375 623.453 328.047C624.188 328.719 624.555 329.594 624.555 330.672C624.555 331.734 624.195 332.602 623.477 333.273C622.758 333.93 621.836 334.258 620.711 334.258C619.602 334.258 618.688 333.93 617.969 333.273C617.25 332.602 616.891 331.734 616.891 330.672ZM630.859 330.672C630.859 329.594 631.219 328.719 631.938 328.047C632.672 327.375 633.586 327.039 634.68 327.039C635.789 327.039 636.703 327.375 637.422 328.047C638.156 328.719 638.523 329.594 638.523 330.672C638.523 331.734 638.164 332.602 637.445 333.273C636.727 333.93 635.805 334.258 634.68 334.258C633.57 334.258 632.656 333.93 631.938 333.273C631.219 332.602 630.859 331.734 630.859 330.672Z" fill="black"/>
<path d="M548.711 407H525.32V402.359L536.359 390.594C537.875 388.938 538.992 387.492 539.711 386.258C540.445 385.023 540.812 383.852 540.812 382.742C540.812 381.227 540.43 380.039 539.664 379.18C538.898 378.305 537.805 377.867 536.383 377.867C534.852 377.867 533.641 378.398 532.75 379.461C531.875 380.508 531.438 381.891 531.438 383.609H524.641C524.641 381.531 525.133 379.633 526.117 377.914C527.117 376.195 528.523 374.852 530.336 373.883C532.148 372.898 534.203 372.406 536.5 372.406C540.016 372.406 542.742 373.25 544.68 374.938C546.633 376.625 547.609 379.008 547.609 382.086C547.609 383.773 547.172 385.492 546.297 387.242C545.422 388.992 543.922 391.031 541.797 393.359L534.039 401.539H548.711V407ZM553.492 403.672C553.492 402.594 553.852 401.719 554.57 401.047C555.305 400.375 556.219 400.039 557.312 400.039C558.422 400.039 559.336 400.375 560.055 401.047C560.789 401.719 561.156 402.594 561.156 403.672C561.156 404.734 560.797 405.602 560.078 406.273C559.359 406.93 558.438 407.258 557.312 407.258C556.203 407.258 555.289 406.93 554.57 406.273C553.852 405.602 553.492 404.734 553.492 403.672ZM553.492 384.477C553.492 383.398 553.852 382.523 554.57 381.852C555.305 381.18 556.219 380.844 557.312 380.844C558.422 380.844 559.336 381.18 560.055 381.852C560.789 382.523 561.156 383.398 561.156 384.477C561.156 385.539 560.797 386.406 560.078 387.078C559.359 387.734 558.438 388.062 557.312 388.062C556.203 388.062 555.289 387.734 554.57 387.078C553.852 386.406 553.492 385.539 553.492 384.477ZM602.922 403.672C602.922 402.594 603.281 401.719 604 401.047C604.734 400.375 605.648 400.039 606.742 400.039C607.852 400.039 608.766 400.375 609.484 401.047C610.219 401.719 610.586 402.594 610.586 403.672C610.586 404.734 610.227 405.602 609.508 406.273C608.789 406.93 607.867 407.258 606.742 407.258C605.633 407.258 604.719 406.93 604 406.273C603.281 405.602 602.922 404.734 602.922 403.672ZM616.891 403.672C616.891 402.594 617.25 401.719 617.969 401.047C618.703 400.375 619.617 400.039 620.711 400.039C621.82 400.039 622.734 400.375 623.453 401.047C624.188 401.719 624.555 402.594 624.555 403.672C624.555 404.734 624.195 405.602 623.477 406.273C622.758 406.93 621.836 407.258 620.711 407.258C619.602 407.258 618.688 406.93 617.969 406.273C617.25 405.602 616.891 404.734 616.891 403.672ZM630.859 403.672C630.859 402.594 631.219 401.719 631.938 401.047C632.672 400.375 633.586 400.039 634.68 400.039C635.789 400.039 636.703 400.375 637.422 401.047C638.156 401.719 638.523 402.594 638.523 403.672C638.523 404.734 638.164 405.602 637.445 406.273C636.727 406.93 635.805 407.258 634.68 407.258C633.57 407.258 632.656 406.93 631.938 406.273C631.219 405.602 630.859 404.734 630.859 403.672Z" fill="black"/>
<path d="M532.211 459.938H535.82C537.539 459.938 538.812 459.508 539.641 458.648C540.469 457.789 540.883 456.648 540.883 455.227C540.883 453.852 540.469 452.781 539.641 452.016C538.828 451.25 537.703 450.867 536.266 450.867C534.969 450.867 533.883 451.227 533.008 451.945C532.133 452.648 531.695 453.57 531.695 454.711H524.922C524.922 452.93 525.398 451.336 526.352 449.93C527.32 448.508 528.664 447.398 530.383 446.602C532.117 445.805 534.023 445.406 536.102 445.406C539.711 445.406 542.539 446.273 544.586 448.008C546.633 449.727 547.656 452.102 547.656 455.133C547.656 456.695 547.18 458.133 546.227 459.445C545.273 460.758 544.023 461.766 542.477 462.469C544.398 463.156 545.828 464.188 546.766 465.562C547.719 466.938 548.195 468.562 548.195 470.438C548.195 473.469 547.086 475.898 544.867 477.727C542.664 479.555 539.742 480.469 536.102 480.469C532.695 480.469 529.906 479.57 527.734 477.773C525.578 475.977 524.5 473.602 524.5 470.648H531.273C531.273 471.93 531.75 472.977 532.703 473.789C533.672 474.602 534.859 475.008 536.266 475.008C537.875 475.008 539.133 474.586 540.039 473.742C540.961 472.883 541.422 471.75 541.422 470.344C541.422 466.938 539.547 465.234 535.797 465.234H532.211V459.938ZM553.492 476.672C553.492 475.594 553.852 474.719 554.57 474.047C555.305 473.375 556.219 473.039 557.312 473.039C558.422 473.039 559.336 473.375 560.055 474.047C560.789 474.719 561.156 475.594 561.156 476.672C561.156 477.734 560.797 478.602 560.078 479.273C559.359 479.93 558.438 480.258 557.312 480.258C556.203 480.258 555.289 479.93 554.57 479.273C553.852 478.602 553.492 477.734 553.492 476.672ZM553.492 457.477C553.492 456.398 553.852 455.523 554.57 454.852C555.305 454.18 556.219 453.844 557.312 453.844C558.422 453.844 559.336 454.18 560.055 454.852C560.789 455.523 561.156 456.398 561.156 457.477C561.156 458.539 560.797 459.406 560.078 460.078C559.359 460.734 558.438 461.062 557.312 461.062C556.203 461.062 555.289 460.734 554.57 460.078C553.852 459.406 553.492 458.539 553.492 457.477ZM602.922 476.672C602.922 475.594 603.281 474.719 604 474.047C604.734 473.375 605.648 473.039 606.742 473.039C607.852 473.039 608.766 473.375 609.484 474.047C610.219 474.719 610.586 475.594 610.586 476.672C610.586 477.734 610.227 478.602 609.508 479.273C608.789 479.93 607.867 480.258 606.742 480.258C605.633 480.258 604.719 479.93 604 479.273C603.281 478.602 602.922 477.734 602.922 476.672ZM616.891 476.672C616.891 475.594 617.25 474.719 617.969 474.047C618.703 473.375 619.617 473.039 620.711 473.039C621.82 473.039 622.734 473.375 623.453 474.047C624.188 474.719 624.555 475.594 624.555 476.672C624.555 477.734 624.195 478.602 623.477 479.273C622.758 479.93 621.836 480.258 620.711 480.258C619.602 480.258 618.688 479.93 617.969 479.273C617.25 478.602 616.891 477.734 616.891 476.672ZM630.859 476.672C630.859 475.594 631.219 474.719 631.938 474.047C632.672 473.375 633.586 473.039 634.68 473.039C635.789 473.039 636.703 473.375 637.422 474.047C638.156 474.719 638.523 475.594 638.523 476.672C638.523 477.734 638.164 478.602 637.445 479.273C636.727 479.93 635.805 480.258 634.68 480.258C633.57 480.258 632.656 479.93 631.938 479.273C631.219 478.602 630.859 477.734 630.859 476.672Z" fill="black"/>
</svg>
